#!OML:ASF F:\VICON\USERDATA\INSTALL\rory3\rory3.ASF
:FULLY-SPECIFIED
:DEGREES
2639
root -6.94686 17.7347 -0.449336 -721.135 37.2896 1.45339
lowerback 13.1596 1.57679 2.54741
upperback 0.614132 2.54669 0.799105
thorax -6.66162 1.18516 -1.06787
lowerneck -20.1424 -2.66376 -11.3427
upperneck 34.274 -0.931998 4.57504
head 15.5894 -1.09941 3.7945
rclavicle -4.37326e-015 7.95139e-016
rhumerus -40.102 -17.2453 -71.3356
rradius 33.7349
rwrist 5.34549
rhand -17.6463 10.2207
rfingers 7.12502
rthumb 8.61168 -19.5837
lclavicle -4.37326e-015 7.95139e-016
lhumerus -30.8449 8.33002 81.3503
lradius 34.9254
lwrist -4.11591
lhand -22.6203 25.3545
lfingers 7.12502
lthumb 3.80975 55.3002
rfemur -5.87427 -2.59537 20.8013
rtibia 31.7059
rfoot -19.5889 -0.29142
rtoes 5.00075
lfemur -13.7743 -6.05745 -19.2087
ltibia 31.4867
lfoot -19.5022 -8.09665
ltoes -19.9763
2640
root -6.92059 17.7531 -0.489742 -720.975 37.4688 1.68301
lowerback 13.0824 1.54023 2.24614
upperback 0.712164 2.45257 0.844841
thorax -6.53172 1.15216 -0.828565
lowerneck -20.2823 -2.74081 -11.4406
upperneck 34.2071 -1.04107 4.69266
head 15.6033 -1.14036 3.84031
rclavicle 2.11209e-014 3.18055e-015
rhumerus -39.8234 -17.7763 -70.9844
rradius 33.6912
rwrist 5.15236
rhand -17.5535 9.6287
rfingers 7.12502
rthumb 8.7012 -20.172
lclavicle 2.11209e-014 3.18055e-015
lhumerus -30.8032 8.08961 81.7872
lradius 34.808
lwrist -4.58454
lhand -22.2231 23.2601
lfingers 7.12502
lthumb 4.19331 53.1985
rfemur -5.77663 -2.58163 20.4526
rtibia 31.4211
rfoot -19.458 -0.472035
rtoes 4.93396
lfemur -13.7872 -6.03498 -19.1109
ltibia 31.4517
lfoot -19.1032 -6.31524
ltoes -19.7004
2641
root -6.89625 17.7703 -0.52659 -721.007 37.6884 1.74589
lowerback 13.1604 1.49668 2.07598
upperback 0.761889 2.37413 0.883389
thorax -6.53315 1.11998 -0.679563
lowerneck -20.3409 -2.80381 -11.479
upperneck 34.2109 -1.15762 4.80682
head 15.6323 -1.17843 3.8755
rclavicle -3.83654e-014 -7.15625e-015
rhumerus -39.7458 -18.3755 -70.607
rradius 33.6965
rwrist 4.97839
rhand -17.7703 9.43674
rfingers 7.12502
rthumb 8.49203 -20.3725
lclavicle -3.83654e-014 -7.15625e-015
lhumerus -30.854 7.87452 82.0698
lradius 34.6182
lwrist -5.16942
lhand -21.6207 21.7823
lfingers 7.12502
lthumb 4.77499 51.7085
rfemur -5.54227 -2.61092 20.2711
rtibia 31.0964
rfoot -19.2787 -0.700904
rtoes 4.92917
lfemur -13.6923 -6.00225 -18.8274
ltibia 31.4149
lfoot -18.5649 -4.9453
ltoes -18.0971
2642
root -6.87204 17.7839 -0.562157 -721.07 37.9209 1.78658
lowerback 13.2916 1.44734 1.92659
upperback 0.773171 2.29192 0.906854
thorax -6.60324 1.08384 -0.559495
lowerneck -20.2865 -2.80241 -11.3523
upperneck 34.1333 -1.21752 4.81271
head 15.5856 -1.18383 3.84101
rclavicle 5.31749e-014 -4.77083e-015
rhumerus -39.7312 -18.8676 -70.2806
rradius 33.6979
rwrist 4.62223
rhand -18.1392 9.586
rfingers 7.12502
rthumb 8.13594 -20.2374
lclavicle 5.31749e-014 -4.77083e-015
lhumerus -30.9732 7.65869 82.2548
lradius 34.399
lwrist -5.72677
lhand -21.1773 22.9284
lfingers 7.12502
lthumb 5.20319 52.8445
rfemur -5.2872 -2.62325 20.1124
rtibia 30.7508
rfoot -19.0827 -0.90654
rtoes 5.13575
lfemur -13.5571 -6.10449 -18.4867
ltibia 31.3992
lfoot -18.0686 -3.58115
ltoes -15.9256
2643
root -6.84819 17.7999 -0.60163 -721.106 38.1506 1.83713
lowerback 13.3713 1.40015 1.79446
upperback 0.841034 2.21202 0.921254
thorax -6.58273 1.04987 -0.456357
lowerneck -20.3386 -2.85888 -11.3215
upperneck 34.0473 -1.34769 4.90699
head 15.5697 -1.21911 3.8488
rclavicle -2.64881e-014 -6.36111e-015
rhumerus -39.604 -19.4999 -69.9969
rradius 33.7302
rwrist 4.42145
rhand -18.4962 9.49212
rfingers 7.12502
rthumb 7.79147 -20.3443
lclavicle -2.64881e-014 -6.36111e-015
lhumerus -30.9681 7.65506 82.3015
lradius 34.0687
lwrist -6.83227
lhand -19.7808 22.8934
lfingers 7.12502
lthumb 6.55145 52.772
rfemur -5.05781 -2.59342 19.939
rtibia 30.3875
rfoot -18.8864 -1.13048
rtoes 5.33289
lfemur -13.4597 -6.15295 -18.1652
ltibia 31.4243
lfoot -17.633 -1.83033
ltoes -15.3384
2644
root -6.824 17.8124 -0.640643 -721.21 38.3662 1.80822
lowerback 13.3997 1.35287 1.71677
upperback 0.965493 2.13981 0.958744
thorax -6.4718 1.01985 -0.358569
lowerneck -20.4316 -2.92858 -11.385
upperneck 33.9926 -1.48987 5.09486
head 15.5822 -1.2593 3.91316
rclavicle -5.17834e-014 -2.38542e-015
rhumerus -39.4786 -20.23 -69.7217
rradius 33.8624
rwrist 4.2202
rhand -18.7433 9.25595
rfingers 7.12502
rthumb 7.5529 -20.5892
lclavicle -5.17834e-014 -2.38542e-015
lhumerus -30.8519 7.52191 82.4517
lradius 33.8013
lwrist -7.646
lhand -18.7669 21.7226
lfingers 7.12502
lthumb 7.53014 51.5686
rfemur -4.80065 -2.51096 19.844
rtibia 30.0031
rfoot -18.66 -1.38058
rtoes 5.40698
lfemur -13.3611 -6.01803 -17.7911
ltibia 31.4717
lfoot -17.1098 -0.00538206
ltoes -15.8791
2645
root -6.79519 17.8236 -0.676205 -721.246 38.5394 1.81847
lowerback 13.3896 1.30701 1.62773
upperback 1.02786 2.06668 0.984441
thorax -6.40512 0.988301 -0.26659
lowerneck -20.4952 -3.00172 -11.4265
upperneck 34.006 -1.60811 5.17901
head 15.6183 -1.30305 3.93576
rclavicle -8.58253e-014 -7.95139e-016
rhumerus -39.4196 -20.6186 -69.5136
rradius 34.0136
rwrist 3.71728
rhand -19.2564 9.46863
rfingers 7.12502
rthumb 7.05767 -20.3937
lclavicle -8.58253e-014 -7.95139e-016
lhumerus -30.8381 7.17708 82.7402
lradius 33.7209
lwrist -7.81032
lhand -18.9528 21.8833
lfingers 7.12502
lthumb 7.35076 51.7356
rfemur -4.57265 -2.37213 19.7118
rtibia 29.6197
rfoot -18.4184 -1.64233
rtoes 5.15922
lfemur -13.271 -5.94263 -17.4015
ltibia 31.5145
lfoot -16.5371 1.36084
ltoes -15.188
2646
root -6.764 17.8391 -0.711209 -721.219 38.7312 1.91916
lowerback 13.4447 1.24857 1.52471
upperback 1.0147 1.97223 0.940108
thorax -6.45291 0.943824 -0.239342
lowerneck -20.4779 -3.06493 -11.5048
upperneck 34.0371 -1.73208 5.33091
head 15.646 -1.34476 3.99368
rclavicle -2.28105e-014 3.97569e-015
rhumerus -39.3995 -20.8226 -69.4466
rradius 34.0693
rwrist 3.19052
rhand -19.7553 9.60995
rfingers 7.12502
rthumb 6.57602 -20.2679
lclavicle -2.28105e-014 3.97569e-015
lhumerus -30.8578 7.10261 82.7763
lradius 33.4757
lwrist -8.31154
lhand -18.8905 21.9548
lfingers 7.12502
lthumb 7.41089 51.805
rfemur -4.35113 -2.23389 19.506
rtibia 29.2647
rfoot -18.2069 -1.99954
rtoes 4.10972
lfemur -13.2094 -5.92963 -17.0605
ltibia 31.5468
lfoot -15.9933 2.40589
ltoes -13.7912
2647
root -6.73303 17.8533 -0.749087 -721.166 38.942 2.04248
lowerback 13.4734 1.23065 1.39626
upperback 1.00088 1.92406 0.856765
thorax -6.48541 0.922266 -0.246748
lowerneck -20.4047 -3.11251 -11.3597
upperneck 34.0832 -1.89204 5.39275
head 15.6666 -1.38485 3.967
rclavicle 6.16232e-015 0
rhumerus -39.4583 -21.0503 -69.4366
rradius 34.1724
rwrist 2.75822
rhand -20.0062 9.43135
rfingers 7.12502
rthumb 6.3338 -20.454
lclavicle 6.16232e-015 0
lhumerus -30.7664 7.151 82.6792
lradius 33.059
lwrist -9.00647
lhand -18.7927 21.5496
lfingers 7.12502
lthumb 7.5052 51.3964
rfemur -4.16017 -2.21272 19.2646
rtibia 28.9458
rfoot -18.0193 -2.33411
rtoes 2.92852
lfemur -13.1524 -5.95298 -16.7357
ltibia 31.5565
lfoot -15.4887 3.4189
ltoes -12.8872
2648
root -6.70046 17.864 -0.790564 -721.067 39.1743 2.16982
lowerback 13.4343 1.2194 1.27438
upperback 1.00645 1.88551 0.793411
thorax -6.45978 0.906222 -0.236614
lowerneck -20.3688 -3.17773 -11.2047
upperneck 34.1172 -2.0585 5.4035
head 15.6905 -1.43319 3.91454
rclavicle 3.17062e-014 -1.11319e-014
rhumerus -39.4877 -21.2734 -69.3839
rradius 34.2679
rwrist 2.52925
rhand -20.3056 9.57468
rfingers 7.12502
rthumb 6.04482 -20.3191
lclavicle 3.17062e-014 -1.11319e-014
lhumerus -30.7291 6.83964 82.7605
lradius 32.8989
lwrist -9.20598
lhand -18.7199 21.3937
lfingers 7.12502
lthumb 7.57553 51.2381
rfemur -4.03493 -2.23318 18.9848
rtibia 28.6472
rfoot -17.8073 -2.47325
rtoes 2.84656
lfemur -13.1153 -5.99344 -16.3922
ltibia 31.5544
lfoot -15.0273 4.20531
ltoes -11.9975
2649
root -6.66428 17.8733 -0.828286 -720.987 39.3838 2.23778
lowerback 13.3847 1.19756 1.23824
upperback 0.967831 1.84608 0.731486
thorax -6.47257 0.886686 -0.273498
lowerneck -20.2311 -3.22555 -11.2324
upperneck 34.088 -2.18398 5.53038
head 15.6602 -1.47076 3.94922
rclavicle -3.23025e-014 -9.54166e-015
rhumerus -39.5874 -21.3455 -69.3657
rradius 34.3952
rwrist 2.28183
rhand -20.5281 9.83242
rfingers 7.12502
rthumb 5.82996 -20.0674
lclavicle -3.23025e-014 -9.54166e-015
lhumerus -30.822 6.44209 82.8594
lradius 32.895
lwrist -9.23695
lhand -18.7589 21.7384
lfingers 7.12502
lthumb 7.53788 51.5841
rfemur -3.9424 -2.20448 18.7598
rtibia 28.388
rfoot -17.5754 -2.54989
rtoes 3.3103
lfemur -13.0835 -5.98922 -15.9799
ltibia 31.5271
lfoot -14.6009 4.77995
ltoes -11.0914
2650
root -6.62704 17.8842 -0.864472 -720.95 39.5493 2.24868
lowerback 13.3328 1.17438 1.20769
upperback 0.918008 1.80758 0.695707
thorax -6.49676 0.867662 -0.286251
lowerneck -20.0544 -3.24462 -11.2719
upperneck 34.0548 -2.26147 5.64483
head 15.6135 -1.49166 3.98927
rclavicle 1.11021e-013 -1.51076e-014
rhumerus -39.6774 -21.2969 -69.4117
rradius 34.5195
rwrist 2.03681
rhand -20.7846 10.3643
rfingers 7.12502
rthumb 5.58236 -19.5422
lclavicle 1.11021e-013 -1.51076e-014
lhumerus -30.9167 6.44834 82.8488
lradius 32.8378
lwrist -9.44615
lhand -18.8691 21.7958
lfingers 7.12502
lthumb 7.43147 51.6453
rfemur -3.84359 -2.21518 18.5855
rtibia 28.1478
rfoot -17.3931 -2.67318
rtoes 2.84589
lfemur -13.0422 -5.86349 -15.5093
ltibia 31.4922
lfoot -14.2069 5.14568
ltoes -10.0372
2651
root -6.58712 17.8976 -0.903184 -720.921 39.6321 2.27402
lowerback 13.2916 1.17199 1.14813
upperback 0.877801 1.7935 0.675135
thorax -6.51776 0.861724 -0.271286
lowerneck -19.918 -3.27055 -11.239
upperneck 34.0735 -2.33168 5.65299
head 15.5983 -1.5162 3.97409
rclavicle 3.7123e-014 -1.90833e-014
rhumerus -39.7637 -21.1586 -69.4566
rradius 34.6614
rwrist 2.08472
rhand -21.0378 10.7063
rfingers 7.12502
rthumb 5.33786 -19.2065
lclavicle 3.7123e-014 -1.90833e-014
lhumerus -31.0114 6.64402 82.7599
lradius 32.776
lwrist -9.63009
lhand -18.6303 21.4687
lfingers 7.12502
lthumb 7.662 51.3099
rfemur -3.73117 -2.29542 18.3722
rtibia 27.8946
rfoot -17.2362 -2.74312
rtoes 1.92454
lfemur -12.9499 -5.75189 -15.0441
ltibia 31.4793
lfoot -13.8385 5.44123
ltoes -8.51294
